<?xml version="1.0" standalone="no"?>
<!DOCTYPE svg PUBLIC "-//W3C//DTD SVG 20010904//EN"
 "http://www.w3.org/TR/2001/REC-SVG-20010904/DTD/svg10.dtd">
<svg version="1.0" xmlns="http://www.w3.org/2000/svg"
 width="700.000000pt" height="700.000000pt" viewBox="0 0 700.000000 700.000000"
 preserveAspectRatio="xMidYMid meet">
<metadata>
Created by potrace 1.14, written by Peter Selinger 2001-2017
</metadata>
<g transform="translate(0.000000,700.000000) scale(0.100000,-0.100000)"
fill="#000000" stroke="none">
<path d="M3085 5828 c-158 -20 -279 -82 -402 -205 -91 -92 -147 -182 -190
-308 l-28 -80 -3 -2151 -2 -2152 235 0 c235 -1 235 -1 236 21 1 12 2 969 3
2127 2 2312 -3 2132 61 2208 115 137 348 87 396 -86 12 -45 14 -344 14 -2161
l0 -2110 238 1 237 0 1 2119 c1 1166 2 2122 4 2127 34 120 124 192 236 188 67
-3 116 -23 161 -69 73 -73 68 109 68 -2248 l0 -2117 235 0 c210 0 235 1 239
16 7 29 0 4225 -8 4267 -22 121 -79 251 -152 342 -149 186 -325 275 -544 274
-166 0 -289 -42 -410 -141 -25 -20 -50 -39 -57 -43 -6 -4 -34 11 -62 33 -101
80 -220 133 -322 145 -93 10 -122 11 -184 3z"/>
</g>
</svg>
